HIERARCHY
ROOT Hips
{
	OFFSET -0.001795 -0.223333 0.028219
	CHANNELS 6 Xposition Yposition Zposition Zrotation Yrotation Xrotation 
	JOINT LeftUpLeg
	{
		OFFSET 0.069520 -0.091406 -0.006815
		CHANNELS 3 Zrotation Yrotation Xrotation
		JOINT LeftLeg
		{
			OFFSET 0.034277 -0.375199 -0.004496
			CHANNELS 3 Zrotation Yrotation Xrotation
			JOINT LeftFoot
			{
				OFFSET -0.013596 -0.397961 -0.043693
				CHANNELS 3 Zrotation Yrotation Xrotation
				JOINT LeftToe
				{
					OFFSET 0.026358 -0.055791 0.119288
					CHANNELS 3 Zrotation Yrotation Xrotation
					End Site
					{
						OFFSET 0.000000 0.000000 0.000000
					}
				}
			}
		}
	}
	JOINT RightUpLeg
	{
		OFFSET -0.067670 -0.090522 -0.004320
		CHANNELS 3 Zrotation Yrotation Xrotation
		JOINT RightLeg
		{
			OFFSET -0.038290 -0.382569 -0.008850
			CHANNELS 3 Zrotation Yrotation Xrotation
			JOINT RightFoot
			{
				OFFSET 0.015774 -0.398415 -0.042312
				CHANNELS 3 Zrotation Yrotation Xrotation
				JOINT RightToe
				{
					OFFSET -0.025372 -0.048144 0.123348
					CHANNELS 3 Zrotation Yrotation Xrotation
					End Site
					{
						OFFSET 0.000000 0.000000 0.000000
					}
				}
			}
		}
	}
	JOINT Spine
	{
		OFFSET -0.002533 0.108963 -0.026696
		CHANNELS 3 Zrotation Yrotation Xrotation
		JOINT Spine1
		{
			OFFSET 0.005487 0.135180 0.001092
			CHANNELS 3 Zrotation Yrotation Xrotation
			JOINT Spine2
			{
				OFFSET 0.001457 0.052922 0.025425
				CHANNELS 3 Zrotation Yrotation Xrotation
				JOINT Neck
				{
					OFFSET -0.002778 0.213870 -0.042857
					CHANNELS 3 Zrotation Yrotation Xrotation
					JOINT Head
					{
						OFFSET 0.005152 0.064970 0.051349
						CHANNELS 3 Zrotation Yrotation Xrotation
						End Site
						{
							OFFSET 0.000000 0.000000 0.000000
						}
					}
				}
				JOINT LeftShoulder
				{
					OFFSET 0.078845 0.121749 -0.034090
					CHANNELS 3 Zrotation Yrotation Xrotation
					JOINT LeftArm
					{
						OFFSET 0.090977 0.030469 -0.008868
						CHANNELS 3 Zrotation Yrotation Xrotation
						JOINT LeftForeArm
						{
							OFFSET 0.259612 -0.012772 -0.027456
							CHANNELS 3 Zrotation Yrotation Xrotation
							JOINT LeftHand
							{
								OFFSET 0.249234 0.008986 -0.001171
								CHANNELS 3 Zrotation Yrotation Xrotation
								End Site
								{
									OFFSET 0.000000 0.000000 0.000000
								}
							}
						}
					}
				}
				JOINT RightShoulder
				{
					OFFSET -0.081759 0.118833 -0.038615
					CHANNELS 3 Zrotation Yrotation Xrotation
					JOINT RightArm
					{
						OFFSET -0.096012 0.032551 -0.009143
						CHANNELS 3 Zrotation Yrotation Xrotation
						JOINT RightForeArm
						{
							OFFSET -0.253742 -0.013329 -0.021401
							CHANNELS 3 Zrotation Yrotation Xrotation
							JOINT RightHand
							{
								OFFSET -0.255298 0.007772 -0.005559
								CHANNELS 3 Zrotation Yrotation Xrotation
								End Site
								{
									OFFSET 0.000000 0.000000 0.000000
								}
							}
						}
					}
				}
			}
		}
	}
}
MOTION
Frames: 17
Frame Time: 0.050000
-0.716455 0.873798 1.305255 -165.583089 -58.242622 170.956917 1.367213 12.552274 -25.569552 11.394688 20.184529 39.447994 -9.407854 -3.179749 -18.234122 0.000000 0.000000 0.000000 -11.543592 14.113966 -37.293976 30.207434 13.522284 39.801297 -25.026642 5.393246 99.778335 0.000000 0.000000 0.000000 55.838791 16.651297 71.179826 -2.537570 -0.355251 -23.575839 -39.335549 -52.912888 44.539416 4.381518 -7.032271 -29.984575 0.000000 0.000000 0.000000 -18.073238 -17.517904 33.175256 -19.603050 -46.703754 2.966388 42.577511 -33.585450 -13.605501 0.000000 0.000000 0.000000 16.692727 13.358459 -30.366513 52.020287 -22.059287 -10.223565 26.058305 35.468386 1.756405 0.000000 0.000000 0.000000 
-0.722863 0.873040 1.310271 -166.435746 -57.508921 170.528359 1.944040 11.794430 -23.679541 10.578647 21.907930 39.771828 -9.456749 -2.878107 -18.413666 0.000000 0.000000 0.000000 -11.761839 14.059108 -37.057870 30.806990 13.698126 39.890628 -18.047300 11.127241 106.532283 0.000000 0.000000 0.000000 56.273868 16.814660 70.539015 -1.988505 -0.467685 -23.504035 -38.480377 -52.129025 43.572387 5.440872 -7.069893 -31.358066 0.000000 0.000000 0.000000 -19.711490 -17.946407 34.821588 -18.572541 -46.324957 1.925078 41.538119 -34.848637 -14.398304 0.000000 0.000000 0.000000 15.955329 14.600146 -29.314008 52.621928 -20.506658 -9.827853 21.099109 34.921762 0.370591 0.000000 0.000000 0.000000 
-0.729881 0.874471 1.314577 -167.438828 -55.833294 170.119143 2.657138 10.797775 -20.965460 8.872152 23.623510 38.740237 -9.094988 -1.012911 -18.535435 0.000000 0.000000 0.000000 -11.513673 13.961092 -36.640463 29.268801 13.704643 38.672033 -3.184264 19.693215 117.510093 0.000000 0.000000 0.000000 56.316025 17.217799 69.956469 -2.631022 -0.652130 -22.641844 -36.232962 -51.532485 41.892906 5.709423 -6.616477 -31.206612 0.000000 0.000000 0.000000 -21.024398 -17.547688 36.006558 -17.523076 -46.467776 1.077956 38.980829 -35.491015 -14.269299 0.000000 0.000000 0.000000 16.403874 15.829878 -29.738802 50.941268 -20.754406 -8.793491 19.742166 35.053353 0.289377 0.000000 0.000000 0.000000 
-0.738014 0.879171 1.317071 -167.325184 -55.445048 168.632559 2.910363 9.278790 -18.120556 7.383033 23.748142 36.716959 -8.388241 1.373313 -17.851174 0.000000 0.000000 0.000000 -11.829232 13.272909 -35.461047 29.512657 13.533337 37.395882 -17.156532 14.626267 105.981555 0.000000 0.000000 0.000000 56.285160 17.236059 68.624022 -2.252092 -0.634128 -23.113773 -34.977426 -50.510919 41.488609 5.656931 -6.806584 -33.619166 0.000000 0.000000 0.000000 -22.951322 -17.936946 38.005540 -13.780709 -47.245192 -0.482727 37.835648 -35.168712 -14.555378 0.000000 0.000000 0.000000 14.823406 15.927563 -28.407378 52.115131 -18.705747 -8.928836 16.546108 34.112481 -0.787499 0.000000 0.000000 0.000000 
-0.747887 0.884565 1.316982 -167.608247 -54.229864 168.206885 3.365023 8.213952 -15.074333 4.390762 23.864251 33.196732 -7.594283 4.502985 -17.452717 0.000000 0.000000 0.000000 -13.584175 13.664666 -35.747873 30.992633 13.507700 36.044227 -29.349335 3.456886 92.201840 0.000000 0.000000 0.000000 53.509609 17.711910 66.083465 -1.806497 -0.835799 -23.218096 -32.028176 -48.338774 38.730530 4.187295 -6.507134 -33.456324 0.000000 0.000000 0.000000 -24.634829 -17.203779 39.833528 -11.578587 -47.489382 -1.848775 35.607272 -36.116457 -14.761730 0.000000 0.000000 0.000000 15.069506 16.939171 -29.667565 51.010778 -21.528580 -9.467255 16.819688 33.931484 -0.489276 0.000000 0.000000 0.000000 
-0.759387 0.890167 1.313806 -167.767108 -53.957493 167.366750 4.154568 7.137533 -11.180152 0.492380 23.698014 28.918231 -7.185928 6.838611 -16.872305 0.000000 0.000000 0.000000 -13.755923 13.278901 -34.937777 30.712381 13.295199 33.846241 -40.935613 -8.083043 78.299538 0.000000 0.000000 0.000000 52.203007 17.663318 63.795759 -2.111773 -0.860734 -23.270840 -29.508795 -47.716970 37.292180 2.517069 -6.140778 -33.814435 0.000000 0.000000 0.000000 -26.050441 -17.112838 41.900267 -9.166546 -47.686106 -3.109877 36.304507 -37.092217 -16.045589 0.000000 0.000000 0.000000 13.740887 16.369195 -29.678578 52.019137 -21.575126 -10.362455 17.095402 33.756534 -0.675184 0.000000 0.000000 0.000000 
-0.772367 0.895305 1.307386 -167.522336 -53.320706 166.436645 5.427141 6.766569 -7.182803 -3.362551 23.303584 24.515448 -7.103797 8.594348 -16.319828 0.000000 0.000000 0.000000 -13.537369 12.907714 -34.139246 29.101404 12.942196 31.803056 -43.834870 -18.650109 62.965071 0.000000 0.000000 0.000000 50.609213 17.510460 60.581549 -1.718898 -1.356006 -21.952564 -27.774817 -46.491713 35.148968 2.354795 -5.355352 -34.615385 0.000000 0.000000 0.000000 -26.306603 -16.164453 42.649249 -8.611437 -48.523183 -3.629954 37.157429 -38.103442 -16.922984 0.000000 0.000000 0.000000 12.780024 15.750600 -29.711758 52.234248 -22.412860 -11.574519 19.945680 33.309967 -0.049389 0.000000 0.000000 0.000000 
-0.786490 0.898145 1.297637 -168.835563 -53.207309 166.873898 5.859142 6.238193 -3.297983 -6.935391 23.362895 20.579932 -7.309770 9.371929 -15.497995 0.000000 0.000000 0.000000 -13.212866 12.049020 -32.384419 23.270126 11.253016 26.873057 -44.644124 -13.422947 60.187174 0.000000 0.000000 0.000000 48.375404 17.146938 56.763001 -1.946309 -1.720759 -21.199787 -27.445870 -45.451258 35.090640 3.965869 -4.186191 -35.541480 0.000000 0.000000 0.000000 -26.248813 -15.960444 44.782966 -5.975008 -49.017857 -4.675683 37.815569 -38.497023 -17.945676 0.000000 0.000000 0.000000 12.184827 16.896914 -31.637984 52.049009 -25.151758 -12.780007 21.688422 34.136333 0.317201 0.000000 0.000000 0.000000 
-0.801415 0.898272 1.284721 -169.773423 -51.468315 167.220158 6.247079 6.288300 0.082527 -8.984891 23.422099 17.791164 -7.824462 10.941642 -16.042768 0.000000 0.000000 0.000000 -10.557041 10.821715 -30.451437 16.527692 9.318356 22.401621 -44.632608 3.656319 67.177531 0.000000 0.000000 0.000000 44.983435 16.909717 52.988387 -2.773318 -1.844874 -20.483472 -25.302640 -43.373539 35.678969 2.999994 -3.420089 -36.779004 0.000000 0.000000 0.000000 -24.192700 -16.103874 46.250193 -4.562897 -51.520646 -4.797045 41.957684 -36.570729 -18.624893 0.000000 0.000000 0.000000 11.577233 17.796625 -34.412122 51.725787 -26.334974 -12.795477 23.679185 35.191087 0.853882 0.000000 0.000000 0.000000 
-0.816544 0.896514 1.269011 -171.540266 -49.759305 167.503274 6.420228 6.583946 4.246086 -10.929479 24.120687 15.495272 -8.848350 11.528561 -16.462838 0.000000 0.000000 0.000000 -9.055879 9.896002 -28.857557 13.282159 8.619366 21.434228 -42.034181 16.407006 73.101210 0.000000 0.000000 0.000000 42.476098 16.729661 50.530674 -2.990743 -1.930138 -19.943654 -24.487390 -42.552599 35.342831 3.718899 -2.320145 -37.405291 0.000000 0.000000 0.000000 -22.643053 -15.758352 47.714906 -0.764969 -53.632925 -6.116684 41.152537 -35.924603 -18.056669 0.000000 0.000000 0.000000 10.173339 19.411793 -35.663403 51.567823 -27.118025 -13.390070 26.961643 37.189663 1.497900 0.000000 0.000000 0.000000 
-0.831218 0.894254 1.250969 -172.298831 -47.081254 167.469098 7.515914 7.936569 7.737457 -12.178878 25.371105 14.206267 -10.062299 11.335905 -16.786060 0.000000 0.000000 0.000000 -6.550346 8.761849 -27.064193 11.340321 8.450728 20.508323 -38.076455 31.104024 80.341406 0.000000 0.000000 0.000000 38.286775 16.264866 47.509690 -2.270993 -1.918021 -19.737375 -22.816527 -39.447200 34.333785 3.724676 -1.318972 -36.669154 0.000000 0.000000 0.000000 -21.287870 -15.891834 50.048930 4.327019 -56.030693 -8.449501 43.065933 -33.179778 -17.718732 0.000000 0.000000 0.000000 10.247304 21.348388 -39.352626 49.549981 -29.599992 -12.843950 31.201953 40.201815 3.402923 0.000000 0.000000 0.000000 
-0.844808 0.894529 1.230792 -172.572664 -44.216378 167.166233 9.009452 9.658606 10.589109 -12.398628 26.669959 14.192125 -10.333936 11.085423 -15.166450 0.000000 0.000000 0.000000 -5.010935 7.853320 -25.425874 11.850623 8.992069 20.092073 -31.904559 42.913162 89.172757 0.000000 0.000000 0.000000 34.825614 15.659669 44.616209 -1.799195 -1.670883 -19.569473 -22.265591 -37.628658 35.363167 5.109704 0.660929 -37.109816 0.000000 0.000000 0.000000 -17.253592 -15.945257 53.253227 12.890763 -59.119724 -11.924314 46.404340 -27.393498 -16.061349 0.000000 0.000000 0.000000 9.520127 23.625353 -44.898281 48.076736 -31.986388 -12.232953 36.710332 41.628709 5.739066 0.000000 0.000000 0.000000 
-0.856914 0.897299 1.208806 -172.954125 -40.659581 168.090726 10.468926 11.489687 12.957741 -11.073125 26.936478 15.005094 -15.694016 3.872721 -12.587925 0.000000 0.000000 0.000000 -3.678094 7.570203 -24.845125 12.976076 9.951236 20.147104 -27.722891 50.460486 94.692196 0.000000 0.000000 0.000000 31.301032 15.018810 42.102880 -1.973808 -1.293885 -19.312250 -20.386518 -35.933365 34.187992 5.064457 2.273609 -36.940288 0.000000 0.000000 0.000000 -14.190465 -16.283146 58.377183 24.623659 -60.861555 -18.022680 49.861742 -19.782982 -13.941352 0.000000 0.000000 0.000000 8.564967 26.808644 -49.743971 47.376871 -34.668398 -12.127122 40.421634 41.757156 7.243320 0.000000 0.000000 0.000000 
-0.867662 0.900473 1.184889 -172.696538 -37.659652 168.629720 11.412774 12.820857 14.419013 -7.701573 25.919177 16.993299 -23.090002 -2.038801 -10.063344 0.000000 0.000000 0.000000 -1.783452 7.065176 -24.108833 13.652963 10.816802 20.343265 -28.101659 56.123488 95.602503 0.000000 0.000000 0.000000 29.674790 14.437682 39.871394 -1.785315 -0.925866 -19.524035 -20.567815 -35.032919 34.957021 5.465516 3.955855 -37.647150 0.000000 0.000000 0.000000 -8.541177 -15.846543 65.875981 44.976777 -60.047329 -27.432571 52.677403 -7.895635 -9.120926 0.000000 0.000000 0.000000 6.306948 28.596366 -56.616042 47.818727 -38.763982 -13.625213 44.995507 41.542897 8.656174 0.000000 0.000000 0.000000 
-0.877453 0.904032 1.158951 -172.711934 -34.874422 169.555443 12.751880 14.305147 15.771185 -3.772189 25.496839 20.010666 -35.162931 -8.762617 -4.687652 0.000000 0.000000 0.000000 -0.010769 6.517990 -23.291667 13.744018 11.413973 20.378065 -28.781125 62.107726 96.306536 0.000000 0.000000 0.000000 28.433688 13.902372 38.004681 -1.549030 -0.461869 -19.131330 -20.480008 -35.652468 34.386110 5.334561 5.765574 -37.746165 0.000000 0.000000 0.000000 -3.288602 -15.714994 76.654612 61.439676 -53.147457 -31.176746 53.466166 7.049505 -2.838726 0.000000 0.000000 0.000000 3.667499 30.837786 -63.097113 46.224114 -42.614505 -14.185275 47.703587 38.258135 8.349031 0.000000 0.000000 0.000000 
-0.886114 0.906460 1.130796 -173.436293 -31.581634 171.360464 13.317345 15.102080 15.658952 2.777013 26.579228 25.615421 -56.275483 -11.085062 6.323858 0.000000 0.000000 0.000000 1.448248 6.337209 -22.957531 13.284930 11.950110 20.643861 -28.194794 70.065588 98.902736 0.000000 0.000000 0.000000 27.143407 13.593197 36.694941 -1.925079 -0.334281 -20.157848 -20.733859 -35.139484 35.005091 5.272996 7.489395 -38.988902 0.000000 0.000000 0.000000 3.979340 -13.826447 93.622654 76.128194 -38.348446 -25.591361 49.261765 27.425232 4.753858 0.000000 0.000000 0.000000 0.066410 31.506155 -74.609509 39.856311 -50.580576 -13.349566 53.421672 30.505527 7.624508 0.000000 0.000000 0.000000 
-0.893333 0.910572 1.100471 -174.566109 -27.059566 173.352846 12.956168 15.328847 14.611769 10.052308 30.812258 33.014304 -58.890985 -7.494481 11.262595 0.000000 0.000000 0.000000 2.440951 6.242387 -22.612779 13.584321 12.959522 21.091982 -26.939497 77.820523 101.856535 0.000000 0.000000 0.000000 23.639237 12.912924 35.001224 -0.712639 0.823715 -19.475583 -20.792933 -34.590173 33.819976 6.143678 10.743038 -39.223142 0.000000 0.000000 0.000000 15.084116 -12.728105 119.169432 83.625735 -15.283190 -5.579359 29.168134 54.042111 4.947449 0.000000 0.000000 0.000000 -3.255451 32.059661 -93.892349 18.611315 -60.776390 -0.282735 55.207218 19.715348 5.065096 0.000000 0.000000 0.000000 
